<?xml version="1.0" encoding="UTF-8"?>
<!-- Generator: Adobe Illustrator 21.1.0, SVG Export Plug-In . SVG Version: 6.00 Build 0)  -->
<svg version="1.1" id="Layer_1" xmlns="http://www.w3.org/2000/svg" xmlns:xlink="http://www.w3.org/1999/xlink" x="0px" y="0px" width="216px" height="60px" viewBox="0 0 216 60" style="enable-background:new 0 0 216 60;" xml:space="preserve">
<style type="text/css">
	.st0{fill:url(#SVGID_1_);}
	.st1{}
	.st2{fill:url(#SVGID_2_);}
</style>
<linearGradient id="SVGID_1_" gradientUnits="userSpaceOnUse" x1="5.6" y1="31.55" x2="73.6012" y2="31.55" gradientTransform="matrix(1 0 0 -1 0 62)">
	<stop offset="0" style="stop-color:#7D58FF"/>
	<stop offset="1" style="stop-color:#FF007D"/>
</linearGradient>
<path class="st0" d="M71.1,6c-0.5-0.3-1.2-0.5-2.1-0.5H10.2C9.6,5.5,8.7,5.6,8,6.1c-1.5,0.8-2.4,2.3-2.4,4v34.1  c0,2.4,1.6,3.5,3.1,3.5c0.7,0,1.4-0.2,2-0.6l15.1-9.3l10.8,15.9c0.7,1.1,1.9,1.7,3,1.7c1.2,0,2.3-0.6,3-1.7l13.7-20.2l12.2,6  c1.6,0.8,3.2,0.5,4.2-0.7c0.5-0.6,0.8-1.5,0.8-2.5V10.1C73.6,8.4,72.6,6.8,71.1,6z M23.9,34.8l-14.7,9V13.1L23.9,34.8z M65.8,13.1  L55.1,28.9l-8.3-4.1L65.8,13.1z M15,9.1h50.6L43.1,22.9L15,9.1z M53.1,31.8L39.7,51.7c0,0.1-0.1,0.1-0.1,0.1l-0.1-0.1L28.9,35.9  L43.3,27L53.1,31.8z M39.6,25.1L26.9,33L12.6,11.9L39.6,25.1z M70.1,13.1v23.1l-11.7-5.8L70.1,13.1z"/>
<g>
	<path class="st1" d="M94.2,5.9h12c5.4,0,9.6,4.1,9.6,9.5v13.9c0,5.4-4.2,9.5-9.6,9.5h-12V5.9z M106.1,33.2c2.2,0,3.8-1.7,3.8-3.9   V15.4c0-2.2-1.6-3.9-3.8-3.9h-5.9v21.7H106.1z"/>
	<path class="st1" d="M137.6,27.5h5.9v2.3c0,5.4-4.2,9.5-9.6,9.5h-2.4c-5.4,0-9.6-4.1-9.6-9.5V14.9c0-5.4,4.2-9.5,9.6-9.5h2.4   c5.4,0,9.6,4.1,9.6,9.5v2.3h-5.9v-2.3c0-2.2-1.6-3.9-3.8-3.9h-2.2c-2.2,0-3.8,1.7-3.8,3.9v14.9c0,2.2,1.6,3.9,3.8,3.9h2.2   c2.2,0,3.8-1.7,3.8-3.9V27.5z"/>
	<g>
		<path class="st1" d="M185.5,29.8c0,5.4-4.2,9.5-9.6,9.5h-2.4c-5.4,0-9.6-4.1-9.6-9.5V14.9c0-5.4,4.2-9.5,9.6-9.5h2.4    c5.4,0,9.6,4.1,9.6,9.5V29.8z M169.9,29.8c0,2.2,1.6,3.9,3.8,3.9h2.2c2.2,0,3.8-1.7,3.8-3.9V14.9c0-2.2-1.6-3.9-3.8-3.9h-2.2    c-2.2,0-3.8,1.7-3.8,3.9V29.8z"/>
		<path class="st1" d="M191.9,14.9c0-5.4,4.2-9.5,9.6-9.5h1.6c5.4,0,9.6,4.1,9.6,9.5v1.6h-5.9v-1.6c0-2.2-1.6-3.9-3.8-3.9h-1.5    c-2.2,0-3.8,1.7-3.8,3.9v0.3c0,6.6,15.2,1.9,15.2,14.2v0.4c0,5.4-4.2,9.5-9.6,9.5h-2.1c-5.4,0-9.6-4.1-9.6-9.5v-1.6h5.9v1.6    c0,2.2,1.6,3.9,3.8,3.9h1.9c2.2,0,3.8-1.7,3.8-3.9v-0.4c0-7-15.2-1.5-15.2-14.2v-0.3H191.9z"/>
	</g>
</g>
<linearGradient id="SVGID_2_" gradientUnits="userSpaceOnUse" x1="145.152" y1="39.4" x2="163.3864" y2="39.4" gradientTransform="matrix(1 0 0 -1 0 62)">
	<stop offset="0" style="stop-color:#7D58FF"/>
	<stop offset="1" style="stop-color:#FF007D"/>
</linearGradient>
<path class="st2" d="M163.4,3c-2.9,0-5.5,1.9-6.5,4.6l-11.8,34.6c2.9,0,5.5-1.9,6.5-4.6L163.4,3L163.4,3z"/>
</svg>
