<?xml version="1.0" encoding="UTF-8"?>
<svg width="323px" height="63px" viewBox="0 0 323 63" version="1.1" xmlns="http://www.w3.org/2000/svg" xmlns:xlink="http://www.w3.org/1999/xlink">
    <!-- Generator: Sketch 59.1 (86144) - https://sketch.com -->
    <title>logo</title>
    <desc>Created with Sketch.</desc>
    <g id="Dynamic" stroke="none" stroke-width="1" fill="none" fill-rule="evenodd">
        <g id="Desktop-HD" transform="translate(-134.000000, -2670.000000)">
            <g id="logo" transform="translate(134.000000, 2670.000000)">
                <g id="spinner" transform="translate(110.000000, 0.000000)">
                    <g id="loading"></g>
                </g>
                <path d="M76,29.4094488 C76,27.6889678 76.3141731,26.1269755 76.9425287,24.7234252 C77.5708844,23.3198749 78.4214506,22.1200837 79.4942529,21.1240157 C80.5670552,20.1279478 81.8390731,19.3582704 83.3103448,18.8149606 C84.7816166,18.2716508 86.3448193,18 88,18 C89.6551807,18 91.2183834,18.2716508 92.6896552,18.8149606 C94.1609269,19.3582704 95.4329448,20.1279478 96.5057471,21.1240157 C97.5785494,22.1200837 98.4291156,23.3198749 99.0574713,24.7234252 C99.6858269,26.1269755 100,27.6889678 100,29.4094488 C100,31.1299299 99.6858269,32.699468 99.0574713,34.1181102 C98.4291156,35.5367525 97.5785494,36.7516354 96.5057471,37.7627953 C95.4329448,38.7739552 94.1609269,39.5662701 92.6896552,40.1397638 C91.2183834,40.7132575 89.6551807,41 88,41 C86.3448193,41 84.7816166,40.7132575 83.3103448,40.1397638 C81.8390731,39.5662701 80.5670552,38.7739552 79.4942529,37.7627953 C78.4214506,36.7516354 77.5708844,35.5367525 76.9425287,34.1181102 C76.3141731,32.699468 76,31.1299299 76,29.4094488 Z M81,29.9548387 C81,30.7978537 81.1324927,31.640856 81.397482,32.483871 C81.6624713,33.3268859 82.0599494,34.0795666 82.5899281,34.7419355 C83.1199067,35.4043044 83.7901638,35.9462345 84.6007194,36.3677419 C85.411275,36.7892494 86.3776922,37 87.5,37 C88.6223078,37 89.588725,36.7892494 90.3992806,36.3677419 C91.2098362,35.9462345 91.8800933,35.4043044 92.4100719,34.7419355 C92.9400506,34.0795666 93.3375287,33.3268859 93.602518,32.483871 C93.8675073,31.640856 94,30.7978537 94,29.9548387 C94,29.1118237 93.8675073,28.2763482 93.602518,27.4483871 C93.3375287,26.620426 92.9400506,25.8752721 92.4100719,25.2129032 C91.8800933,24.5505343 91.2098362,24.0161311 90.3992806,23.6096774 C89.588725,23.2032238 88.6223078,23 87.5,23 C86.3776922,23 85.411275,23.2032238 84.6007194,23.6096774 C83.7901638,24.0161311 83.1199067,24.5505343 82.5899281,25.2129032 C82.0599494,25.8752721 81.6624713,26.620426 81.397482,27.4483871 C81.1324927,28.2763482 81,29.1118237 81,29.9548387 Z M105.208092,23 L101,23 L101,18.5 L105.208092,18.5 L105.208092,15.171875 C105.208092,13.8281183 105.354526,12.5390687 105.647399,11.3046875 C105.940271,10.0703063 106.433523,8.98437969 107.127168,8.046875 C107.820813,7.10937031 108.737952,6.36719023 109.878613,5.8203125 C111.019268,5.27343477 112.452785,5 114.179191,5 C114.795764,5 115.312137,5.02343727 115.728324,5.0703125 C116.144511,5.11718773 116.568399,5.20312437 117,5.328125 L116.630058,10.109375 C116.321771,10.0156245 115.990368,9.93750031 115.635838,9.875 C115.281308,9.81249969 114.903663,9.78125 114.50289,9.78125 C113.701345,9.78125 113.053952,9.93749844 112.560694,10.25 C112.067435,10.5625016 111.689789,10.9687475 111.427746,11.46875 C111.165702,11.9687525 110.98844,12.515622 110.895954,13.109375 C110.803468,13.703128 110.757225,14.2812472 110.757225,14.84375 L110.757225,18.5 L115.890173,18.5 L115.890173,23 L110.757225,23 L110.757225,41 L105.208092,41 L105.208092,23 Z M119.208092,23 L115,23 L115,18.5 L119.208092,18.5 L119.208092,15.171875 C119.208092,13.8281183 119.354526,12.5390687 119.647399,11.3046875 C119.940271,10.0703063 120.433523,8.98437969 121.127168,8.046875 C121.820813,7.10937031 122.737952,6.36719023 123.878613,5.8203125 C125.019268,5.27343477 126.452785,5 128.179191,5 C128.795764,5 129.312137,5.02343727 129.728324,5.0703125 C130.144511,5.11718773 130.568399,5.20312437 131,5.328125 L130.630058,10.109375 C130.321771,10.0156245 129.990368,9.93750031 129.635838,9.875 C129.281308,9.81249969 128.903663,9.78125 128.50289,9.78125 C127.701345,9.78125 127.053952,9.93749844 126.560694,10.25 C126.067435,10.5625016 125.689789,10.9687475 125.427746,11.46875 C125.165702,11.9687525 124.98844,12.515622 124.895954,13.109375 C124.803468,13.703128 124.757225,14.2812472 124.757225,14.84375 L124.757225,18.5 L129.890173,18.5 L129.890173,23 L124.757225,23 L124.757225,41 L119.208092,41 L119.208092,23 Z M146.472362,24.4291339 C145.989947,23.7952724 145.326637,23.2444249 144.482412,22.7765748 C143.638187,22.3087247 142.718598,22.0748031 141.723618,22.0748031 C140.849242,22.0748031 140.050255,22.2559037 139.326633,22.6181102 C138.603011,22.9803168 138.241206,23.5839853 138.241206,24.4291339 C138.241206,25.2742824 138.6407,25.8704051 139.439698,26.2175197 C140.14992,26.526066 141.151958,26.8405703 142.445838,27.1610402 L142.944724,27.2814961 C143.758798,27.4625993 144.580398,27.7040667 145.409548,28.0059055 C146.238698,28.3077443 146.992459,28.7076747 147.670854,29.2057087 C148.34925,29.7037426 148.899495,30.3225029 149.321608,31.0620079 C149.743721,31.8015129 149.954774,32.6994698 149.954774,33.7559055 C149.954774,35.0839961 149.706033,36.2083287 149.208543,37.128937 C148.711053,38.0495453 148.047743,38.7965851 147.218593,39.3700787 C146.389443,39.9435724 145.424629,40.3585945 144.324121,40.6151575 C143.223613,40.8717204 142.085433,41 140.909548,41 C139.221097,41 137.577897,40.6906199 135.979899,40.0718504 C134.381902,39.4530809 133.055282,38.5702157 132,37.4232283 L135.572864,34.0728346 C136.175882,34.8576155 136.959794,35.5065591 137.924623,36.019685 C138.889452,36.532811 139.959793,36.7893701 141.135678,36.7893701 C141.52764,36.7893701 141.927134,36.7440949 142.334171,36.6535433 C142.741208,36.5629917 143.118089,36.4196204 143.464824,36.2234252 C143.81156,36.02723 144.090451,35.763125 144.301508,35.4311024 C144.512564,35.0990797 144.61809,34.6916035 144.61809,34.2086614 C144.61809,33.3031451 144.203522,32.6542014 143.374372,32.261811 C142.628137,31.9086597 141.546111,31.555513 140.128268,31.2023626 L139.643216,31.0846457 C138.829142,30.9035424 138.037692,30.6696209 137.268844,30.382874 C136.5,30.0961272 135.814073,29.7188344 135.211055,29.2509843 C134.608037,28.7831341 134.12563,28.2021032 133.763819,27.507874 C133.402008,26.8136448 133.221106,25.9534172 133.221106,24.9271654 C133.221106,23.7198102 133.469847,22.6784821 133.967337,21.8031496 C134.464827,20.9278171 135.120599,20.2109608 135.934673,19.6525591 C136.748748,19.0941573 137.668337,18.6791352 138.693467,18.4074803 C139.718598,18.1358254 140.773864,18 141.859296,18 C143.427144,18 144.957279,18.2716508 146.449749,18.8149606 C147.942219,19.3582704 149.125624,20.1883146 150,21.3051181 L146.472362,24.4291339 Z M168.442922,24.6555118 C168.03805,24.0518343 167.43075,23.5462619 166.621005,23.1387795 C165.811259,22.7312972 164.987067,22.5275591 164.148402,22.5275591 C163.194059,22.5275591 162.355407,22.7312972 161.63242,23.1387795 C160.909433,23.5462619 160.309363,24.0820177 159.832192,24.746063 C159.35502,25.4101083 159.000762,26.1571481 158.769406,26.9872047 C158.538051,27.8172614 158.422374,28.6548514 158.422374,29.5 C158.422374,30.3451486 158.54528,31.1827386 158.791096,32.0127953 C159.036911,32.8428519 159.405629,33.5898917 159.89726,34.253937 C160.388891,34.9179823 161.003421,35.4537381 161.740868,35.8612205 C162.478314,36.2687028 163.338656,36.4724409 164.321918,36.4724409 C165.131663,36.4724409 165.941396,36.3064321 166.751142,35.9744094 C167.560887,35.6423868 168.211565,35.159452 168.703196,34.5255906 L171.956621,37.9665354 C171.089037,38.9324195 169.982883,39.6794593 168.638128,40.2076772 C167.293372,40.735895 165.84019,41 164.278539,41 C162.745807,41 161.292625,40.7434409 159.91895,40.230315 C158.545275,39.717189 157.345135,38.9626034 156.318493,37.9665354 C155.291852,36.9704675 154.482119,35.7631305 153.889269,34.3444882 C153.29642,32.9258459 153,31.3110327 153,29.5 C153,27.7493351 153.29642,26.1647053 153.889269,24.746063 C154.482119,23.3274207 155.284622,22.1200837 156.296804,21.1240157 C157.308985,20.1279478 158.487436,19.3582704 159.832192,18.8149606 C161.176947,18.2716508 162.61567,18 164.148402,18 C165.681134,18 167.163235,18.3018343 168.594749,18.9055118 C170.026263,19.5091864 171.161335,20.3392336 172,21.3956693 L168.442922,24.6555118 Z M189.702703,37.6818182 L189.560811,37.6818182 C188.99324,38.65152 188.078835,39.4469666 186.817568,40.0681818 C185.5563,40.689397 184.12163,41 182.513514,41 C181.599095,41 180.645275,40.8863648 179.652027,40.6590909 C178.658779,40.431817 177.744374,40.053033 176.908784,39.5227273 C176.073194,38.9924216 175.379507,38.2954589 174.827703,37.4318182 C174.275898,36.5681775 174,35.5 174,34.2272727 C174,32.5909009 174.480851,31.2878836 175.442568,30.3181818 C176.404284,29.34848 177.641884,28.6060606 179.155405,28.0909091 C180.668926,27.575755 182.347964,27.2348493 184.192568,27.0681818 C186.037171,26.9015143 187.842334,26.8181818 189.608108,26.8181818 L189.608108,26.2727273 C189.608108,24.9090841 189.095726,23.9015184 188.070946,23.25 C187.046166,22.5984816 185.824324,22.2727273 184.405405,22.2727273 C183.207201,22.2727273 182.056312,22.5151491 180.952703,23 C179.849094,23.4848509 178.934688,24.0757541 178.209459,24.7727273 L175.277027,21.4545455 C176.569826,20.3030245 178.059676,19.4393968 179.746622,18.8636364 C181.433567,18.2878759 183.144135,18 184.878378,18 C186.896406,18 188.559678,18.2727245 189.868243,18.8181818 C191.176808,19.3636391 192.209456,20.0757532 192.966216,20.9545455 C193.722977,21.8333377 194.251125,22.8181764 194.550676,23.9090909 C194.850227,25 195,26.0909036 195,27.1818182 L195,40.4545455 L189.702703,40.4545455 L189.702703,37.6818182 Z M189,31 L187.842857,31 C187.014282,31 186.142862,31.0416662 185.228571,31.125 C184.314281,31.2083337 183.471432,31.3916652 182.7,31.675 C181.928568,31.9583348 181.285717,32.3583308 180.771429,32.875 C180.25714,33.3916693 180,34.0999955 180,35 C180,35.5666695 180.107142,36.0416648 180.321429,36.425 C180.535715,36.8083353 180.814284,37.1166655 181.157143,37.35 C181.5,37.5833345 181.885712,37.7499995 182.314286,37.85 C182.742859,37.9500005 183.171426,38 183.6,38 C185.371437,38 186.714281,37.4500055 187.628571,36.35 C188.542862,35.2499945 189,33.7500095 189,31.85 L189,31 Z M199,7 L205,7 L205,41 L199,41 L199,7 Z M225,29 C225,28.2068926 224.903118,27.4482795 224.70935,26.7241379 C224.515582,26 224.210029,25.3620717 223.792683,24.8103448 C223.375337,24.2586179 222.846209,23.8189672 222.205285,23.4913793 C221.56436,23.1637915 220.811657,23 219.947154,23 C218.33739,23 216.973583,23.5603392 215.855691,24.6810345 C214.737799,25.8017297 214.119242,27.2413705 214,29 L225,29 Z M154.728737,52.0512048 C155.2455,52.0512048 155.739457,52.1616455 156.210623,52.3825301 C156.681789,52.6034148 157.054156,52.9397568 157.327736,53.3915663 L157.358134,53.3915663 L157.358134,52.246988 L158.741227,52.246988 L158.741227,59.0240964 C158.741227,59.5461873 158.675366,60.0456803 158.543642,60.5225904 C158.411919,60.9995004 158.189005,61.4211829 157.874894,61.7876506 C157.560783,62.1541183 157.150419,62.4477901 156.643789,62.6686747 C156.137159,62.8895593 155.508947,63 154.759135,63 C154.130914,63 153.500169,62.8870493 152.866881,62.6611446 C152.233593,62.4352398 151.688974,62.1164679 151.233007,61.7048193 L152.144937,60.6054217 C152.459047,60.9568291 152.85168,61.2379508 153.322846,61.4487952 C153.794012,61.6596396 154.277836,61.7650602 154.774334,61.7650602 C155.250566,61.7650602 155.650798,61.6972898 155.975041,61.561747 C156.299284,61.4262041 156.560195,61.240463 156.75778,61.0045181 C156.955366,60.7685731 157.09722,60.4899614 157.183347,60.1686747 C157.269475,59.847388 157.312537,59.5010059 157.312537,59.1295181 L157.312537,58.2108434 L157.28214,58.2108434 C157.018692,58.6124518 156.65899,58.9186736 156.203023,59.1295181 C155.747056,59.3403625 155.260699,59.4457831 154.743936,59.4457831 C154.196776,59.4457831 153.697752,59.3504026 153.246852,59.1596386 C152.795951,58.9688745 152.413451,58.707833 152.09934,58.376506 C151.78523,58.0451791 151.542051,57.6561267 151.369797,57.2093373 C151.197543,56.762548 151.111417,56.2831351 151.111417,55.7710843 C151.111417,55.2590336 151.197543,54.7771107 151.369797,54.3253012 C151.542051,53.8734917 151.78523,53.4794194 152.09934,53.1430723 C152.413451,52.8067252 152.793418,52.5406636 153.239252,52.3448795 C153.685087,52.1490954 154.181577,52.0512048 154.728737,52.0512048 Z M98.6653363,52.0512048 C99.182099,52.0512048 99.6760559,52.1616455 100.147222,52.3825301 C100.618388,52.6034148 100.990755,52.9397568 101.264335,53.3915663 L101.294733,53.3915663 L101.294733,52.246988 L102.677826,52.246988 L102.677826,59.0240964 C102.677826,59.5461873 102.611965,60.0456803 102.480242,60.5225904 C102.348518,60.9995004 102.125604,61.4211829 101.811493,61.7876506 C101.497383,62.1541183 101.087018,62.4477901 100.580388,62.6686747 C100.073758,62.8895593 99.4455465,63 98.695734,63 C98.0675127,63 97.4367678,62.8870493 96.8034802,62.6611446 C96.1701927,62.4352398 95.6255735,62.1164679 95.1696065,61.7048193 L96.081536,60.6054217 C96.3956466,60.9568291 96.788279,61.2379508 97.259445,61.4487952 C97.7306109,61.6596396 98.2144354,61.7650602 98.7109328,61.7650602 C99.1871651,61.7650602 99.5873968,61.6972898 99.91164,61.561747 C100.235883,61.4262041 100.496794,61.240463 100.69438,61.0045181 C100.891965,60.7685731 101.03382,60.4899614 101.119947,60.1686747 C101.206074,59.847388 101.249137,59.5010059 101.249137,59.1295181 L101.249137,58.2108434 L101.218739,58.2108434 C100.955291,58.6124518 100.595589,58.9186736 100.139622,59.1295181 C99.6836554,59.3403625 99.1972978,59.4457831 98.6805352,59.4457831 C98.1333747,59.4457831 97.6343516,59.3504026 97.1834509,59.1596386 C96.7325501,58.9688745 96.3500502,58.707833 96.0359395,58.376506 C95.7218289,58.0451791 95.4786501,57.6561267 95.3063959,57.2093373 C95.1341417,56.762548 95.0480159,56.2831351 95.0480159,55.7710843 C95.0480159,55.2590336 95.1341417,54.7771107 95.3063959,54.3253012 C95.4786501,53.8734917 95.7218289,53.4794194 96.0359395,53.1430723 C96.3500502,52.8067252 96.730017,52.5406636 97.1758514,52.3448795 C97.6216859,52.1490954 98.1181759,52.0512048 98.6653363,52.0512048 Z M32.0788003,50.0784076 C33.62288,50.1023036 34.878621,51.3237256 34.9850602,52.8673875 L34.9921134,53.0401871 L34.9929918,59.1267857 C34.9634517,60.1345571 34.428873,61.0639828 33.5666874,61.5839924 C32.6470228,62.1386692 31.5019329,62.1386692 30.5822682,61.5839924 C29.7200826,61.0639828 29.1855039,60.1345571 29.1559639,59.1267857 L29.1568423,58.9242849 L29.1568423,53.0401871 C29.1639521,51.4065833 30.4683477,50.0844109 32.0788003,50.0784076 Z M286.436692,52.0512048 C286.953455,52.0512048 287.452478,52.1516054 287.933777,52.3524096 C288.415075,52.5532139 288.787443,52.8443756 289.05089,53.2259036 L288.062967,54.0542169 C287.900845,53.7931714 287.672865,53.5798201 287.379019,53.4141566 C287.085174,53.2484931 286.755869,53.1656627 286.391096,53.1656627 C286.228974,53.1656627 286.066855,53.1832328 285.904733,53.2183735 C285.742612,53.2535142 285.598224,53.3087346 285.471567,53.3840361 C285.344909,53.4593377 285.243585,53.5547183 285.16759,53.6701807 C285.091596,53.7856431 285.053599,53.928714 285.053599,54.0993976 C285.053599,54.4006039 285.190387,54.6239953 285.463967,54.7695783 C285.737548,54.9151614 286.147912,55.0481922 286.695072,55.1686747 C287.039581,55.2489964 287.358753,55.344377 287.652598,55.4548193 C287.946444,55.5652616 288.202288,55.7033124 288.420139,55.8689759 C288.63799,56.0346394 288.807708,56.2329306 288.9293,56.4638554 C289.050891,56.6947803 289.111686,56.9658619 289.111686,57.2771084 C289.111686,57.6987973 289.030626,58.0552194 288.868504,58.3463855 C288.706383,58.6375517 288.491068,58.8760031 288.222554,59.061747 C287.95404,59.2474909 287.647534,59.3805217 287.303025,59.4608434 C286.958517,59.5411651 286.603881,59.5813253 286.239108,59.5813253 C285.691947,59.5813253 285.15746,59.4759047 284.635631,59.2650602 C284.113802,59.0542158 283.68064,58.7329339 283.336132,58.3012048 L284.354453,57.4427711 C284.546973,57.723897 284.812949,57.9598384 285.152391,58.1506024 C285.491834,58.3413664 285.864201,58.436747 286.269505,58.436747 C286.451892,58.436747 286.626677,58.4191769 286.793865,58.3840361 C286.961053,58.3488954 287.113039,58.2911651 287.249829,58.2108434 C287.38662,58.1305217 287.495543,58.0251011 287.576604,57.8945783 C287.657665,57.7640556 287.698195,57.5983946 287.698195,57.3975904 C287.698195,57.0662634 287.538609,56.8202819 287.219432,56.6596386 C286.900255,56.4989952 286.431629,56.3483943 285.81354,56.2078313 C285.570358,56.1475901 285.324646,56.0747996 285.076397,55.9894578 C284.828149,55.904116 284.602702,55.7861453 284.40005,55.6355422 C284.197398,55.484939 284.032745,55.2966879 283.906088,55.0707831 C283.77943,54.8448784 283.716102,54.5662667 283.716102,54.2349398 C283.716102,53.8534117 283.794629,53.5245998 283.951684,53.248494 C284.10874,52.9723882 284.313922,52.7464868 284.567237,52.5707831 C284.820552,52.3950794 285.109327,52.2645587 285.43357,52.1792169 C285.757813,52.0938751 286.092184,52.0512048 286.436692,52.0512048 Z M294.041171,52.0512048 C294.547801,52.0512048 295.051891,52.1516054 295.553454,52.3524096 C296.055018,52.5532139 296.452717,52.8443756 296.746562,53.2259036 L295.713042,54.0542169 C295.561053,53.823292 295.333073,53.6300209 295.029095,53.4743976 C294.725117,53.3187743 294.400878,53.2409639 294.05637,53.2409639 C293.681464,53.2409639 293.349626,53.3112443 293.060847,53.4518072 C292.772068,53.5923702 292.526356,53.7806213 292.323704,54.0165663 C292.121052,54.2525112 291.966532,54.5261029 291.86014,54.8373494 C291.753747,55.1485959 291.700552,55.4748979 291.700552,55.8162651 C291.700552,56.1576322 291.753747,56.4839342 291.86014,56.7951807 C291.966532,57.1064273 292.121052,57.3800189 292.323704,57.6159639 C292.526356,57.8519088 292.774601,58.0401599 293.068446,58.1807229 C293.362292,58.3212858 293.696663,58.3915663 294.071569,58.3915663 C294.436343,58.3915663 294.76818,58.3212858 295.067092,58.1807229 C295.366004,58.0401599 295.611716,57.8493988 295.804235,57.6084337 L296.761761,58.4668675 C296.457783,58.8182748 296.077816,59.0918665 295.621849,59.2876506 C295.165882,59.4834347 294.649127,59.5813253 294.071569,59.5813253 C293.514276,59.5813253 293.000054,59.4909648 292.528888,59.310241 C292.057722,59.1295172 291.649891,58.8760056 291.305383,58.5496988 C290.960874,58.2233919 290.689831,57.8293196 290.492245,57.3674699 C290.29466,56.9056202 290.195868,56.3885571 290.195868,55.8162651 C290.195868,55.2540133 290.292127,54.7419702 290.484646,54.2801205 C290.677166,53.8182708 290.945675,53.4216884 291.290184,53.0903614 C291.634692,52.7590345 292.042523,52.503013 292.513689,52.3222892 C292.984855,52.1415654 293.494011,52.0512048 294.041171,52.0512048 Z M312.857317,52.0512048 C313.384212,52.0512048 313.862971,52.1365453 314.293606,52.3072289 C314.724242,52.4779125 315.08901,52.723894 315.387922,53.0451807 C315.686833,53.3664675 315.917347,53.7555198 316.079468,54.2123494 C316.24159,54.669179 316.322649,55.1837321 316.322649,55.7560241 L316.322649,55.996988 C316.322649,56.0773096 316.317583,56.1576301 316.307451,56.2379518 L310.592692,56.2379518 C310.602825,56.5391581 310.671219,56.8227898 310.797876,57.0888554 C310.924534,57.354921 311.094252,57.5858424 311.307037,57.7816265 C311.519822,57.9774106 311.765533,58.1305215 312.04418,58.2409639 C312.322827,58.3514062 312.619201,58.4066265 312.933311,58.4066265 C313.419676,58.4066265 313.840173,58.3012059 314.194814,58.0903614 C314.549455,57.879517 314.828097,57.6234955 315.030749,57.3222892 L316.033872,58.1204819 C315.648833,58.6224925 315.195406,58.9914647 314.673577,59.2274096 C314.151748,59.4633546 313.571665,59.5813253 312.933311,59.5813253 C312.386151,59.5813253 311.879528,59.4909648 311.413429,59.310241 C310.947329,59.1295172 310.547097,58.8760056 310.212722,58.5496988 C309.878346,58.2233919 309.614902,57.8293196 309.422383,57.3674699 C309.229863,56.9056202 309.133605,56.3935771 309.133605,55.8313253 C309.133605,55.2791137 309.22733,54.7695806 309.414783,54.3027108 C309.602236,53.835841 309.863147,53.4367486 310.197523,53.1054217 C310.531899,52.7740947 310.927064,52.5155632 311.383031,52.3298193 C311.838998,52.1440754 312.330422,52.0512048 312.857317,52.0512048 Z M128.85527,52.0512048 C129.382165,52.0512048 129.860923,52.1365453 130.291559,52.3072289 C130.722195,52.4779125 131.086963,52.723894 131.385874,53.0451807 C131.684786,53.3664675 131.915299,53.7555198 132.077421,54.2123494 C132.239543,54.669179 132.320602,55.1837321 132.320602,55.7560241 L132.320602,55.996988 C132.320602,56.0773096 132.315536,56.1576301 132.305403,56.2379518 L126.590645,56.2379518 C126.600778,56.5391581 126.669172,56.8227898 126.795829,57.0888554 C126.922487,57.354921 127.092205,57.5858424 127.30499,57.7816265 C127.517774,57.9774106 127.763486,58.1305215 128.042133,58.2409639 C128.320779,58.3514062 128.617153,58.4066265 128.931264,58.4066265 C129.417629,58.4066265 129.838126,58.3012059 130.192767,58.0903614 C130.547408,57.879517 130.82605,57.6234955 131.028702,57.3222892 L132.031824,58.1204819 C131.646786,58.6224925 131.193359,58.9914647 130.67153,59.2274096 C130.149701,59.4633546 129.569618,59.5813253 128.931264,59.5813253 C128.384104,59.5813253 127.877481,59.4909648 127.411382,59.310241 C126.945282,59.1295172 126.54505,58.8760056 126.210674,58.5496988 C125.876298,58.2233919 125.612855,57.8293196 125.420335,57.3674699 C125.227816,56.9056202 125.131558,56.3935771 125.131558,55.8313253 C125.131558,55.2791137 125.225283,54.7695806 125.412736,54.3027108 C125.600189,53.835841 125.8611,53.4367486 126.195476,53.1054217 C126.529851,52.7740947 126.925017,52.5155632 127.380984,52.3298193 C127.836951,52.1440754 128.328375,52.0512048 128.85527,52.0512048 Z M320.325007,52.0512048 C320.841769,52.0512048 321.340792,52.1516054 321.822091,52.3524096 C322.30339,52.5532139 322.675757,52.8443756 322.939205,53.2259036 L321.951281,54.0542169 C321.789159,53.7931714 321.561179,53.5798201 321.267334,53.4141566 C320.973488,53.2484931 320.644184,53.1656627 320.27941,53.1656627 C320.117289,53.1656627 319.955169,53.1832328 319.793048,53.2183735 C319.630926,53.2535142 319.486539,53.3087346 319.359881,53.3840361 C319.233224,53.4593377 319.131899,53.5547183 319.055905,53.6701807 C318.97991,53.7856431 318.941914,53.928714 318.941914,54.0993976 C318.941914,54.4006039 319.078702,54.6239953 319.352282,54.7695783 C319.580265,54.8908975 319.903238,55.0034999 320.321206,55.1073877 L320.583387,55.1686747 C320.927895,55.2489964 321.247067,55.344377 321.540913,55.4548193 C321.834758,55.5652616 322.090603,55.7033124 322.308453,55.8689759 C322.526304,56.0346394 322.696023,56.2329306 322.817614,56.4638554 C322.939205,56.6947803 323,56.9658619 323,57.2771084 C323,57.6987973 322.91894,58.0552194 322.756819,58.3463855 C322.594697,58.6375517 322.379383,58.8760031 322.110869,59.061747 C321.842355,59.2474909 321.535848,59.3805217 321.19134,59.4608434 C320.846831,59.5411651 320.492196,59.5813253 320.127422,59.5813253 C319.580262,59.5813253 319.045775,59.4759047 318.523946,59.2650602 C318.002117,59.0542158 317.568955,58.7329339 317.224446,58.3012048 L318.242768,57.4427711 C318.435287,57.723897 318.701264,57.9598384 319.040706,58.1506024 C319.380148,58.3413664 319.752516,58.436747 320.15782,58.436747 C320.340206,58.436747 320.514991,58.4191769 320.682179,58.3840361 C320.849367,58.3488954 321.001354,58.2911651 321.138144,58.2108434 C321.274934,58.1305217 321.383858,58.0251011 321.464919,57.8945783 C321.545979,57.7640556 321.586509,57.5983946 321.586509,57.3975904 C321.586509,57.0662634 321.426923,56.8202819 321.107746,56.6596386 C320.788569,56.4989952 320.319944,56.3483943 319.701855,56.2078313 C319.458672,56.1475901 319.212961,56.0747996 318.964712,55.9894578 C318.716463,55.904116 318.491016,55.7861453 318.288364,55.6355422 C318.085712,55.484939 317.92106,55.2966879 317.794402,55.0707831 C317.667745,54.8448784 317.604417,54.5662667 317.604417,54.2349398 C317.604417,53.8534117 317.682943,53.5245998 317.839999,53.248494 C317.997054,52.9723882 318.202236,52.7464868 318.455551,52.5707831 C318.708866,52.3950794 318.997641,52.2645587 319.321884,52.1792169 C319.646127,52.0938751 319.980498,52.0512048 320.325007,52.0512048 Z M120.399657,52.0512048 C120.926552,52.0512048 121.40531,52.1365453 121.835946,52.3072289 C122.266581,52.4779125 122.631349,52.723894 122.930261,53.0451807 C123.229173,53.3664675 123.459686,53.7555198 123.621808,54.2123494 C123.783929,54.669179 123.864989,55.1837321 123.864989,55.7560241 L123.864989,55.996988 C123.864989,56.0773096 123.859923,56.1576301 123.84979,56.2379518 L118.135032,56.2379518 C118.145164,56.5391581 118.213558,56.8227898 118.340216,57.0888554 C118.466873,57.354921 118.636592,57.5858424 118.849377,57.7816265 C119.062161,57.9774106 119.307873,58.1305215 119.58652,58.2409639 C119.865166,58.3514062 120.16154,58.4066265 120.475651,58.4066265 C120.962016,58.4066265 121.382512,58.3012059 121.737153,58.0903614 C122.091794,57.879517 122.370437,57.6234955 122.573089,57.3222892 L123.576211,58.1204819 C123.191172,58.6224925 122.737745,58.9914647 122.215916,59.2274096 C121.694087,59.4633546 121.114005,59.5813253 120.475651,59.5813253 C119.92849,59.5813253 119.421868,59.4909648 118.955768,59.310241 C118.489669,59.1295172 118.089437,58.8760056 117.755061,58.5496988 C117.420685,58.2233919 117.157242,57.8293196 116.964722,57.3674699 C116.772203,56.9056202 116.675944,56.3935771 116.675944,55.8313253 C116.675944,55.2791137 116.76967,54.7695806 116.957123,54.3027108 C117.144576,53.835841 117.405486,53.4367486 117.739862,53.1054217 C118.074238,52.7740947 118.469404,52.5155632 118.925371,52.3298193 C119.381338,52.1440754 119.872761,52.0512048 120.399657,52.0512048 Z M81.7237122,52.0512048 C82.2506075,52.0512048 82.7293657,52.1365453 83.1600012,52.3072289 C83.5906368,52.4779125 83.9554049,52.723894 84.2543167,53.0451807 C84.5532284,53.3664675 84.7837416,53.7555198 84.9458632,54.2123494 C85.1079848,54.669179 85.1890444,55.1837321 85.1890444,55.7560241 L85.1890444,55.996988 C85.1890444,56.0773096 85.1839782,56.1576301 85.1738456,56.2379518 L79.4590872,56.2379518 C79.4692198,56.5391581 79.5376139,56.8227898 79.6642714,57.0888554 C79.7909289,57.354921 79.9606474,57.5858424 80.173432,57.7816265 C80.3862167,57.9774106 80.6319285,58.1305215 80.9105751,58.2409639 C81.1892216,58.3514062 81.4855957,58.4066265 81.7997064,58.4066265 C82.2860712,58.4066265 82.7065678,58.3012059 83.0612089,58.0903614 C83.4158499,57.879517 83.6944923,57.6234955 83.8971443,57.3222892 L84.9002668,58.1204819 C84.5152279,58.6224925 84.0618008,58.9914647 83.5399719,59.2274096 C83.0181429,59.4633546 82.4380602,59.5813253 81.7997064,59.5813253 C81.2525459,59.5813253 80.7459235,59.4909648 80.2798238,59.310241 C79.8137242,59.1295172 79.4134924,58.8760056 79.0791166,58.5496988 C78.7447408,58.2233919 78.4812971,57.8293196 78.2887777,57.3674699 C78.0962583,56.9056202 78,56.3935771 78,55.8313253 C78,55.2791137 78.0937252,54.7695806 78.2811783,54.3027108 C78.4686314,53.835841 78.7295419,53.4367486 79.0639178,53.1054217 C79.3982936,52.7740947 79.7934591,52.5155632 80.2494262,52.3298193 C80.7053932,52.1440754 81.196817,52.0512048 81.7237122,52.0512048 Z M188.216816,48 L188.216816,59.3855422 L186.833723,59.3855422 L186.833723,58.2560241 L186.803325,58.2560241 C186.529745,58.6877532 186.157377,59.0165651 185.686211,59.2424699 C185.215046,59.4683746 184.721089,59.5813253 184.204326,59.5813253 C183.647033,59.5813253 183.145477,59.4834347 182.699642,59.2876506 C182.253808,59.0918665 181.873841,58.8232949 181.55973,58.4819277 C181.24562,58.1405605 181.002441,57.7389581 180.830187,57.2771084 C180.657933,56.8152587 180.571807,56.3232958 180.571807,55.8012048 C180.571807,55.2791139 180.657933,54.7896609 180.830187,54.3328313 C181.002441,53.8760017 181.248153,53.4769093 181.56733,53.1355422 C181.886507,52.794175 182.269007,52.5281134 182.714841,52.3373494 C183.160676,52.1465854 183.652099,52.0512048 184.189127,52.0512048 C184.776818,52.0512048 185.288507,52.1741956 185.724209,52.4201807 C186.15991,52.6661659 186.504414,52.9648577 186.757729,53.3162651 L186.788126,53.3162651 L186.788126,48 L188.216816,48 Z M238.626254,52.0512048 C239.132884,52.0512048 239.636973,52.1516054 240.138537,52.3524096 C240.640101,52.5532139 241.037799,52.8443756 241.331645,53.2259036 L240.298124,54.0542169 C240.146135,53.823292 239.918155,53.6300209 239.614177,53.4743976 C239.310199,53.3187743 238.985961,53.2409639 238.641452,53.2409639 C238.266546,53.2409639 237.934709,53.3112443 237.645929,53.4518072 C237.35715,53.5923702 237.111438,53.7806213 236.908786,54.0165663 C236.706134,54.2525112 236.551615,54.5261029 236.445222,54.8373494 C236.33883,55.1485959 236.285635,55.4748979 236.285635,55.8162651 C236.285635,56.1576322 236.33883,56.4839342 236.445222,56.7951807 C236.551615,57.1064273 236.706134,57.3800189 236.908786,57.6159639 C237.111438,57.8519088 237.359683,58.0401599 237.653529,58.1807229 C237.947374,58.3212858 238.281745,58.3915663 238.656651,58.3915663 C239.021425,58.3915663 239.353263,58.3212858 239.652174,58.1807229 C239.951086,58.0401599 240.196798,57.8493988 240.389317,57.6084337 L241.346843,58.4668675 C241.042865,58.8182748 240.662899,59.0918665 240.206931,59.2876506 C239.750964,59.4834347 239.23421,59.5813253 238.656651,59.5813253 C238.099358,59.5813253 237.585136,59.4909648 237.113971,59.310241 C236.642805,59.1295172 236.234973,58.8760056 235.890465,58.5496988 C235.545957,58.2233919 235.274914,57.8293196 235.077328,57.3674699 C234.879742,56.9056202 234.780951,56.3885571 234.780951,55.8162651 C234.780951,55.2540133 234.877209,54.7419702 235.069728,54.2801205 C235.262248,53.8182708 235.530758,53.4216884 235.875266,53.0903614 C236.219775,52.7590345 236.627606,52.503013 237.098772,52.3222892 C237.569938,52.1415654 238.079093,52.0512048 238.626254,52.0512048 Z M202.230133,52.0512048 C202.757028,52.0512048 203.235786,52.1365453 203.666422,52.3072289 C204.097058,52.4779125 204.461826,52.723894 204.760737,53.0451807 C205.059649,53.3664675 205.290162,53.7555198 205.452284,54.2123494 C205.614406,54.669179 205.695465,55.1837321 205.695465,55.7560241 L205.695465,55.996988 C205.695465,56.0773096 205.690399,56.1576301 205.680266,56.2379518 L199.965508,56.2379518 C199.975641,56.5391581 200.044035,56.8227898 200.170692,57.0888554 C200.29735,57.354921 200.467068,57.5858424 200.679853,57.7816265 C200.892637,57.9774106 201.138349,58.1305215 201.416996,58.2409639 C201.695642,58.3514062 201.992016,58.4066265 202.306127,58.4066265 C202.792492,58.4066265 203.212989,58.3012059 203.56763,58.0903614 C203.922271,57.879517 204.200913,57.6234955 204.403565,57.3222892 L205.406687,58.1204819 C205.021649,58.6224925 204.568222,58.9914647 204.046393,59.2274096 C203.524564,59.4633546 202.944481,59.5813253 202.306127,59.5813253 C201.758967,59.5813253 201.252344,59.4909648 200.786245,59.310241 C200.320145,59.1295172 199.919913,58.8760056 199.585537,58.5496988 C199.251162,58.2233919 198.987718,57.8293196 198.795198,57.3674699 C198.602679,56.9056202 198.506421,56.3935771 198.506421,55.8313253 C198.506421,55.2791137 198.600146,54.7695806 198.787599,54.3027108 C198.975052,53.835841 199.235963,53.4367486 199.570339,53.1054217 C199.904714,52.7740947 200.29988,52.5155632 200.755847,52.3298193 C201.211814,52.1440754 201.703238,52.0512048 202.230133,52.0512048 Z M217.180711,52.0512048 C217.707606,52.0512048 218.186364,52.1365453 218.617,52.3072289 C219.047635,52.4779125 219.412404,52.723894 219.711315,53.0451807 C220.010227,53.3664675 220.24074,53.7555198 220.402862,54.2123494 C220.564984,54.669179 220.646043,55.1837321 220.646043,55.7560241 L220.646043,55.996988 C220.646043,56.0773096 220.640977,56.1576301 220.630844,56.2379518 L214.916086,56.2379518 C214.926219,56.5391581 214.994613,56.8227898 215.12127,57.0888554 C215.247928,57.354921 215.417646,57.5858424 215.630431,57.7816265 C215.843215,57.9774106 216.088927,58.1305215 216.367574,58.2409639 C216.64622,58.3514062 216.942594,58.4066265 217.256705,58.4066265 C217.74307,58.4066265 218.163567,58.3012059 218.518208,58.0903614 C218.872849,57.879517 219.151491,57.6234955 219.354143,57.3222892 L220.357265,58.1204819 C219.972227,58.6224925 219.5188,58.9914647 218.996971,59.2274096 C218.475142,59.4633546 217.895059,59.5813253 217.256705,59.5813253 C216.709545,59.5813253 216.202922,59.4909648 215.736823,59.310241 C215.270723,59.1295172 214.870491,58.8760056 214.536115,58.5496988 C214.201739,58.2233919 213.938296,57.8293196 213.745776,57.3674699 C213.553257,56.9056202 213.456999,56.3935771 213.456999,55.8313253 C213.456999,55.2791137 213.550724,54.7695806 213.738177,54.3027108 C213.92563,53.835841 214.186541,53.4367486 214.520916,53.1054217 C214.855292,52.7740947 215.250458,52.5155632 215.706425,52.3298193 C216.162392,52.1440754 216.653816,52.0512048 217.180711,52.0512048 Z M209.697823,52.0512048 C210.214585,52.0512048 210.713608,52.1516054 211.194907,52.3524096 C211.676205,52.5532139 212.048573,52.8443756 212.312021,53.2259036 L211.324097,54.0542169 C211.161975,53.7931714 210.933995,53.5798201 210.64015,53.4141566 C210.346304,53.2484931 210.017,53.1656627 209.652226,53.1656627 C209.490104,53.1656627 209.327985,53.1832328 209.165864,53.2183735 C209.003742,53.2535142 208.859355,53.3087346 208.732697,53.3840361 C208.60604,53.4593377 208.504715,53.5547183 208.428721,53.6701807 C208.352726,53.7856431 208.314729,53.928714 208.314729,54.0993976 C208.314729,54.4006039 208.451517,54.6239953 208.725098,54.7695783 C208.998678,54.9151614 209.409042,55.0481922 209.956203,55.1686747 C210.300711,55.2489964 210.619883,55.344377 210.913729,55.4548193 C211.207574,55.5652616 211.463418,55.7033124 211.681269,55.8689759 C211.89912,56.0346394 212.068839,56.2329306 212.19043,56.4638554 C212.312021,56.6947803 212.372816,56.9658619 212.372816,57.2771084 C212.372816,57.6987973 212.291756,58.0552194 212.129635,58.3463855 C211.967513,58.6375517 211.752198,58.8760031 211.483685,59.061747 C211.215171,59.2474909 210.908664,59.3805217 210.564156,59.4608434 C210.219647,59.5411651 209.865011,59.5813253 209.500238,59.5813253 C208.953077,59.5813253 208.418591,59.4759047 207.896762,59.2650602 C207.374933,59.0542158 206.941771,58.7329339 206.597262,58.3012048 L207.615583,57.4427711 C207.808103,57.723897 208.07408,57.9598384 208.413522,58.1506024 C208.752964,58.3413664 209.125331,58.436747 209.530635,58.436747 C209.713022,58.436747 209.887807,58.4191769 210.054995,58.3840361 C210.222183,58.3488954 210.37417,58.2911651 210.51096,58.2108434 C210.64775,58.1305217 210.756674,58.0251011 210.837734,57.8945783 C210.918795,57.7640556 210.959325,57.5983946 210.959325,57.3975904 C210.959325,57.0662634 210.799739,56.8202819 210.480562,56.6596386 C210.161385,56.4989952 209.692759,56.3483943 209.074671,56.2078313 C208.831488,56.1475901 208.585776,56.0747996 208.337528,55.9894578 C208.089279,55.904116 207.863832,55.7861453 207.66118,55.6355422 C207.458528,55.484939 207.293876,55.2966879 207.167218,55.0707831 C207.040561,54.8448784 206.977233,54.5662667 206.977233,54.2349398 C206.977233,53.8534117 207.055759,53.5245998 207.212815,53.248494 C207.36987,52.9723882 207.575052,52.7464868 207.828367,52.5707831 C208.081682,52.3950794 208.370457,52.2645587 208.6947,52.1792169 C209.018943,52.0938751 209.353314,52.0512048 209.697823,52.0512048 Z M225.134763,52.0512048 C225.651526,52.0512048 226.099886,52.1239953 226.479859,52.2695783 C226.859832,52.4151614 227.171404,52.6134526 227.414587,52.8644578 C227.657769,53.1154631 227.840154,53.4116449 227.961744,53.753012 C228.083336,54.0943792 228.14413,54.4608414 228.14413,54.8524096 L228.14413,57.9698795 C228.14413,58.2108446 228.15173,58.4643561 228.166929,58.7304217 C228.182127,58.9964873 228.209992,59.2148586 228.250522,59.3855422 L226.958622,59.3855422 C226.877561,59.044175 226.837031,58.702813 226.837031,58.3614458 L226.791435,58.3614458 C226.527987,58.7429738 226.19615,59.0391556 225.795912,59.25 C225.395674,59.4608444 224.921982,59.5662651 224.374822,59.5662651 C224.091109,59.5662651 223.794735,59.5286148 223.48569,59.4533133 C223.176646,59.3780117 222.895471,59.2550209 222.642156,59.0843373 C222.388841,58.9136538 222.178592,58.6877524 222.011404,58.4066265 C221.844216,58.1255006 221.760624,57.7791185 221.760624,57.3674699 C221.760624,56.8252985 221.907544,56.3960859 222.20139,56.0798193 C222.495235,55.7635526 222.880268,55.5225912 223.3565,55.3569277 C223.832733,55.1912642 224.369752,55.0833336 224.967576,55.0331325 C225.565399,54.9829315 226.16828,54.9578313 226.776236,54.9578313 L226.776236,54.7620482 C226.776236,54.229917 226.614117,53.8358447 226.289874,53.5798193 C225.96563,53.3237939 225.535001,53.1957831 224.997973,53.1957831 C224.592669,53.1957831 224.21017,53.2735936 223.850462,53.4292169 C223.490755,53.5848401 223.189314,53.7831313 222.946132,54.0240964 L222.186191,53.1204819 C222.540832,52.789155 222.973994,52.5281134 223.48569,52.3373494 C223.997387,52.1465854 224.547072,52.0512048 225.134763,52.0512048 Z M270.888294,52.0512048 C271.405056,52.0512048 271.853417,52.1239953 272.23339,52.2695783 C272.613362,52.4151614 272.924935,52.6134526 273.168118,52.8644578 C273.4113,53.1154631 273.593685,53.4116449 273.715275,53.753012 C273.836867,54.0943792 273.897661,54.4608414 273.897661,54.8524096 L273.897661,57.9698795 C273.897661,58.2108446 273.905261,58.4643561 273.920459,58.7304217 C273.935658,58.9964873 273.963523,59.2148586 274.004053,59.3855422 L272.712153,59.3855422 C272.631092,59.044175 272.590562,58.702813 272.590562,58.3614458 L272.544966,58.3614458 C272.281518,58.7429738 271.94968,59.0391556 271.549443,59.25 C271.149205,59.4608444 270.675513,59.5662651 270.128353,59.5662651 C269.84464,59.5662651 269.548266,59.5286148 269.239221,59.4533133 C268.930177,59.3780117 268.649001,59.2550209 268.395686,59.0843373 C268.142371,58.9136538 267.932123,58.6877524 267.764935,58.4066265 C267.597747,58.1255006 267.514155,57.7791185 267.514155,57.3674699 C267.514155,56.8252985 267.661075,56.3960859 267.95492,56.0798193 C268.248766,55.7635526 268.633799,55.5225912 269.110031,55.3569277 C269.586263,55.1912642 270.123283,55.0833336 270.721107,55.0331325 C271.31893,54.9829315 271.921811,54.9578313 272.529767,54.9578313 L272.529767,54.7620482 C272.529767,54.229917 272.367648,53.8358447 272.043405,53.5798193 C271.719161,53.3237939 271.288532,53.1957831 270.751504,53.1957831 C270.3462,53.1957831 269.9637,53.2735936 269.603993,53.4292169 C269.244286,53.5848401 268.942845,53.7831313 268.699663,54.0240964 L267.939722,53.1204819 C268.294363,52.789155 268.727525,52.5281134 269.239221,52.3373494 C269.750918,52.1465854 270.300603,52.0512048 270.888294,52.0512048 Z M167.323497,52.0512048 C167.84026,52.0512048 168.288621,52.1239953 168.668593,52.2695783 C169.048566,52.4151614 169.360139,52.6134526 169.603321,52.8644578 C169.846503,53.1154631 170.028888,53.4116449 170.150479,53.753012 C170.27207,54.0943792 170.332865,54.4608414 170.332865,54.8524096 L170.332865,57.9698795 C170.332865,58.2108446 170.340464,58.4643561 170.355663,58.7304217 C170.370862,58.9964873 170.398726,59.2148586 170.439256,59.3855422 L169.147356,59.3855422 C169.066295,59.044175 169.025766,58.702813 169.025766,58.3614458 L168.980169,58.3614458 C168.716722,58.7429738 168.384884,59.0391556 167.984646,59.25 C167.584408,59.4608444 167.110716,59.5662651 166.563556,59.5662651 C166.279843,59.5662651 165.983469,59.5286148 165.674425,59.4533133 C165.36538,59.3780117 165.084205,59.2550209 164.83089,59.0843373 C164.577575,58.9136538 164.367326,58.6877524 164.200139,58.4066265 C164.032951,58.1255006 163.949358,57.7791185 163.949358,57.3674699 C163.949358,56.8252985 164.096278,56.3960859 164.390124,56.0798193 C164.683969,55.7635526 165.069002,55.5225912 165.545235,55.3569277 C166.021467,55.1912642 166.558487,55.0833336 167.15631,55.0331325 C167.754134,54.9829315 168.357014,54.9578313 168.96497,54.9578313 L168.96497,54.7620482 C168.96497,54.229917 168.802851,53.8358447 168.478608,53.5798193 C168.154365,53.3237939 167.723736,53.1957831 167.186708,53.1957831 C166.781404,53.1957831 166.398904,53.2735936 166.039196,53.4292169 C165.679489,53.5848401 165.378049,53.7831313 165.134866,54.0240964 L164.374925,53.1204819 C164.729566,52.789155 165.162728,52.5281134 165.674425,52.3373494 C166.186121,52.1465854 166.735806,52.0512048 167.323497,52.0512048 Z M300.764118,52.0512048 C301.280881,52.0512048 301.729242,52.1239953 302.109214,52.2695783 C302.489187,52.4151614 302.80076,52.6134526 303.043942,52.8644578 C303.287125,53.1154631 303.469509,53.4116449 303.5911,53.753012 C303.712691,54.0943792 303.773486,54.4608414 303.773486,54.8524096 L303.773486,57.9698795 C303.773486,58.2108446 303.781085,58.4643561 303.796284,58.7304217 C303.811483,58.9964873 303.839347,59.2148586 303.879878,59.3855422 L302.587977,59.3855422 C302.506917,59.044175 302.466387,58.702813 302.466387,58.3614458 L302.42079,58.3614458 C302.157343,58.7429738 301.825505,59.0391556 301.425267,59.25 C301.02503,59.4608444 300.551338,59.5662651 300.004177,59.5662651 C299.720464,59.5662651 299.42409,59.5286148 299.115046,59.4533133 C298.806001,59.3780117 298.524826,59.2550209 298.271511,59.0843373 C298.018196,58.9136538 297.807948,58.6877524 297.64076,58.4066265 C297.473572,58.1255006 297.389979,57.7791185 297.389979,57.3674699 C297.389979,56.8252985 297.5369,56.3960859 297.830745,56.0798193 C298.12459,55.7635526 298.509624,55.5225912 298.985856,55.3569277 C299.462088,55.1912642 299.999108,55.0833336 300.596931,55.0331325 C301.194755,54.9829315 301.797635,54.9578313 302.405592,54.9578313 L302.405592,54.7620482 C302.405592,54.229917 302.243472,53.8358447 301.919229,53.5798193 C301.594986,53.3237939 301.164357,53.1957831 300.627329,53.1957831 C300.222025,53.1957831 299.839525,53.2735936 299.479818,53.4292169 C299.12011,53.5848401 298.81867,53.7831313 298.575487,54.0240964 L297.815546,53.1204819 C298.170187,52.789155 298.603349,52.5281134 299.115046,52.3373494 C299.626742,52.1465854 300.176428,52.0512048 300.764118,52.0512048 Z M256.287289,50.1987952 L256.287289,52.246988 L258.202341,52.246988 L258.202341,53.4066265 L256.287289,53.4066265 L256.287289,57.126506 C256.287289,57.5582351 256.368348,57.8669669 256.53047,58.0527108 C256.692592,58.2384547 256.950969,58.3313253 257.30561,58.3313253 C257.437334,58.3313253 257.579188,58.3162652 257.731177,58.2861446 C257.883166,58.2560239 258.019954,58.2108437 258.141546,58.1506024 L258.187142,59.310241 C258.014888,59.3704822 257.824904,59.4181725 257.617186,59.4533133 C257.409468,59.488454 257.194153,59.5060241 256.971236,59.5060241 C256.292352,59.5060241 255.773064,59.320283 255.413356,58.9487952 C255.053649,58.5773074 254.873798,58.020084 254.873798,57.2771084 L254.873798,53.4066265 L253.490705,53.4066265 L253.490705,52.246988 L254.873798,52.246988 L254.873798,50.1987952 L256.287289,50.1987952 Z M277.48965,50.1987952 L277.48965,52.246988 L279.404702,52.246988 L279.404702,53.4066265 L277.48965,53.4066265 L277.48965,57.126506 C277.48965,57.5582351 277.57071,57.8669669 277.732832,58.0527108 C277.894953,58.2384547 278.153331,58.3313253 278.507972,58.3313253 C278.639695,58.3313253 278.78155,58.3162652 278.933539,58.2861446 C279.085528,58.2560239 279.222316,58.2108437 279.343907,58.1506024 L279.389504,59.310241 C279.217249,59.3704822 279.027266,59.4181725 278.819548,59.4533133 C278.611829,59.488454 278.396515,59.5060241 278.173597,59.5060241 C277.494713,59.5060241 276.975425,59.320283 276.615718,58.9487952 C276.256011,58.5773074 276.07616,58.020084 276.07616,57.2771084 L276.07616,53.4066265 L274.693066,53.4066265 L274.693066,52.246988 L276.07616,52.246988 L276.07616,50.1987952 L277.48965,50.1987952 Z M112.293616,52.0512048 C112.759716,52.0512048 113.159948,52.1290153 113.494324,52.2846386 C113.8287,52.4402618 114.107342,52.6485931 114.330259,52.9096386 C114.553176,53.170684 114.717829,53.4769059 114.824221,53.8283133 C114.930613,54.1797206 114.983809,54.5562229 114.983809,54.9578313 L114.983809,59.3855422 L113.555119,59.3855422 L113.555119,55.4246988 C113.555119,55.1335327 113.532321,54.857431 113.486724,54.5963855 C113.441128,54.3353401 113.357535,54.1044187 113.235944,53.9036145 C113.114352,53.7028102 112.947167,53.5421693 112.734382,53.4216867 C112.521598,53.3012042 112.248022,53.2409639 111.913646,53.2409639 C111.34622,53.2409639 110.882661,53.4543151 110.522953,53.8810241 C110.163246,54.3077331 109.983395,54.8775065 109.983395,55.5903614 L109.983395,59.3855422 L108.554705,59.3855422 L108.554705,53.7831325 C108.554705,53.5923685 108.549639,53.346387 108.539507,53.0451807 L108.512487,52.4896253 C108.506857,52.4048419 108.500665,52.3239629 108.49391,52.246988 L109.846606,52.246988 L109.880381,52.6385539 L109.905712,53.2585341 C109.906838,53.3171015 109.907401,53.3714857 109.907401,53.4216867 L109.952997,53.4216867 C110.044191,53.2309227 110.168313,53.0527117 110.325369,52.8870482 C110.482424,52.7213847 110.662275,52.5758038 110.864927,52.4503012 C111.067579,52.3247986 111.290493,52.226908 111.533675,52.1566265 C111.776858,52.086345 112.030169,52.0512048 112.293616,52.0512048 Z M233.879154,52.0512048 C234.102071,52.0512048 234.289521,52.0712849 234.44151,52.1114458 L234.380715,53.4216867 C234.178063,53.3714857 233.960215,53.3463855 233.727166,53.3463855 C233.382657,53.3463855 233.08375,53.4091359 232.830435,53.5346386 C232.57712,53.6601412 232.366872,53.8283122 232.199684,54.0391566 C232.032496,54.2500011 231.908373,54.4934725 231.827312,54.7695783 C231.746252,55.0456841 231.705722,55.3343358 231.705722,55.6355422 L231.705722,59.3855422 L230.277032,59.3855422 L230.277032,53.7831325 L230.261833,53.0451807 L230.234813,52.4896253 C230.229184,52.4048419 230.222992,52.3239629 230.216237,52.246988 L231.568932,52.246988 C231.589198,52.4277117 231.604396,52.636043 231.614529,52.871988 L231.628039,53.2869812 C231.629165,53.3466642 231.629728,53.4016062 231.629728,53.4518072 L231.675324,53.4518072 C231.877976,53.0301184 232.17435,52.6912663 232.564455,52.435241 C232.954561,52.1792156 233.392789,52.0512048 233.879154,52.0512048 Z M140.750884,52.246988 L140.750884,59.3855422 L139.322194,59.3855422 L139.322194,52.246988 L140.750884,52.246988 Z M90.6656879,52.0512048 C91.1317875,52.0512048 91.5320193,52.1290153 91.8663951,52.2846386 C92.2007709,52.4402618 92.4794133,52.6485931 92.7023305,52.9096386 C92.9252477,53.170684 93.0899,53.4769059 93.1962923,53.8283133 C93.3026846,54.1797206 93.35588,54.5562229 93.35588,54.9578313 L93.35588,59.3855422 L91.9271904,59.3855422 L91.9271904,55.4246988 C91.9271904,55.1335327 91.9043924,54.857431 91.8587957,54.5963855 C91.813199,54.3353401 91.7296063,54.1044187 91.6080151,53.9036145 C91.4864238,53.7028102 91.3192384,53.5421693 91.1064538,53.4216867 C90.8936692,53.3012042 90.6200931,53.2409639 90.2857172,53.2409639 C89.7182916,53.2409639 89.254732,53.4543151 88.8950247,53.8810241 C88.5353174,54.3077331 88.3554664,54.8775065 88.3554664,55.5903614 L88.3554664,59.3855422 L86.9267768,59.3855422 L86.9267768,53.7831325 C86.9267768,53.5923685 86.9217106,53.346387 86.911578,53.0451807 L86.8845579,52.4896253 C86.8789287,52.4048419 86.8727366,52.3239629 86.8659815,52.246988 L88.218677,52.246988 L88.2524521,52.6385539 L88.2777835,53.2585341 C88.2789094,53.3171015 88.2794723,53.3714857 88.2794723,53.4216867 L88.3250688,53.4216867 C88.4162622,53.2309227 88.5403847,53.0527117 88.69744,52.8870482 C88.8544953,52.7213847 89.0343463,52.5758038 89.2369983,52.4503012 C89.4396503,52.3247986 89.6625642,52.226908 89.9057466,52.1566265 C90.148929,52.086345 90.4022403,52.0512048 90.6656879,52.0512048 Z M106.315412,52.246988 L106.315412,59.3855422 L104.886722,59.3855422 L104.886722,52.246988 L106.315412,52.246988 Z M197.604624,52.0512048 C197.827541,52.0512048 198.014991,52.0712849 198.16698,52.1114458 L198.106185,53.4216867 C197.903533,53.3714857 197.685685,53.3463855 197.452635,53.3463855 C197.108127,53.3463855 196.80922,53.4091359 196.555905,53.5346386 C196.30259,53.6601412 196.092341,53.8283122 195.925154,54.0391566 C195.757966,54.2500011 195.633843,54.4934725 195.552782,54.7695783 C195.471722,55.0456841 195.431192,55.3343358 195.431192,55.6355422 L195.431192,59.3855422 L194.002502,59.3855422 L194.002502,53.7831325 L193.987303,53.0451807 L193.960283,52.4896253 C193.954654,52.4048419 193.948462,52.3239629 193.941707,52.246988 L195.294402,52.246988 C195.314667,52.4277117 195.329866,52.636043 195.339999,52.871988 L195.353509,53.2869812 C195.354635,53.3466642 195.355198,53.4016062 195.355198,53.4518072 L195.400794,53.4518072 C195.603446,53.0301184 195.89982,52.6912663 196.289925,52.435241 C196.68003,52.1792156 197.118259,52.0512048 197.604624,52.0512048 Z M137.660456,52.0512048 C137.883373,52.0512048 138.070824,52.0712849 138.222813,52.1114458 L138.162017,53.4216867 C137.959365,53.3714857 137.741518,53.3463855 137.508468,53.3463855 C137.163959,53.3463855 136.865052,53.4091359 136.611737,53.5346386 C136.358422,53.6601412 136.148174,53.8283122 135.980986,54.0391566 C135.813798,54.2500011 135.689676,54.4934725 135.608615,54.7695783 C135.527554,55.0456841 135.487024,55.3343358 135.487024,55.6355422 L135.487024,59.3855422 L134.058335,59.3855422 L134.058335,53.7831325 L134.043136,53.0451807 L134.016116,52.4896253 C134.010486,52.4048419 134.004294,52.3239629 133.997539,52.246988 L135.350235,52.246988 C135.3705,52.4277117 135.385699,52.636043 135.395831,52.871988 L135.409341,53.2869812 C135.410467,53.3466642 135.41103,53.4016062 135.41103,53.4518072 L135.456626,53.4518072 C135.659279,53.0301184 135.955653,52.6912663 136.345758,52.435241 C136.735863,52.1792156 137.174091,52.0512048 137.660456,52.0512048 Z M243.966108,48 L243.966108,53.3313253 L243.996505,53.3313253 C244.16876,52.9799179 244.462601,52.6787161 244.878037,52.4277108 C245.293474,52.1767056 245.759566,52.0512048 246.276329,52.0512048 C246.742429,52.0512048 247.142661,52.1290153 247.477036,52.2846386 C247.811412,52.4402618 248.090055,52.6485931 248.312972,52.9096386 C248.535889,53.170684 248.700541,53.4769059 248.806934,53.8283133 C248.913326,54.1797206 248.966521,54.5562229 248.966521,54.9578313 L248.966521,59.3855422 L247.537832,59.3855422 L247.537832,55.439759 C247.537832,55.1485929 247.515034,54.8724913 247.469437,54.6114458 C247.42384,54.3504003 247.340248,54.1194789 247.218656,53.9186747 C247.097066,53.7178705 246.932413,53.5572295 246.724694,53.436747 C246.516976,53.3162645 246.245933,53.2560241 245.911557,53.2560241 C245.344132,53.2560241 244.878039,53.4693754 244.513265,53.8960843 C244.148492,54.3227933 243.966108,54.8925667 243.966108,55.6054217 L243.966108,59.3855422 L242.537418,59.3855422 L242.537418,48 L243.966108,48 Z M260.8824,48 L260.8824,53.3313253 L260.912798,53.3313253 C261.085052,52.9799179 261.378893,52.6787161 261.79433,52.4277108 C262.209767,52.1767056 262.675859,52.0512048 263.192622,52.0512048 C263.658721,52.0512048 264.058953,52.1290153 264.393329,52.2846386 C264.727705,52.4402618 265.006347,52.6485931 265.229264,52.9096386 C265.452182,53.170684 265.616834,53.4769059 265.723226,53.8283133 C265.829619,54.1797206 265.882814,54.5562229 265.882814,54.9578313 L265.882814,59.3855422 L264.454124,59.3855422 L264.454124,55.439759 C264.454124,55.1485929 264.431326,54.8724913 264.38573,54.6114458 C264.340133,54.3504003 264.25654,54.1194789 264.134949,53.9186747 C264.013358,53.7178705 263.848706,53.5572295 263.640987,53.436747 C263.433269,53.3162645 263.162226,53.2560241 262.82785,53.2560241 C262.260424,53.2560241 261.794332,53.4693754 261.429558,53.8960843 C261.064784,54.3227933 260.8824,54.8925667 260.8824,55.6054217 L260.8824,59.3855422 L259.453711,59.3855422 L259.453711,48 L260.8824,48 Z M176.204678,52.0512048 C176.670777,52.0512048 177.071009,52.1290153 177.405385,52.2846386 C177.739761,52.4402618 178.018403,52.6485931 178.24132,52.9096386 C178.464237,53.170684 178.62889,53.4769059 178.735282,53.8283133 C178.841674,54.1797206 178.89487,54.5562229 178.89487,54.9578313 L178.89487,59.3855422 L177.46618,59.3855422 L177.46618,55.4246988 C177.46618,55.1335327 177.443382,54.857431 177.397785,54.5963855 C177.352189,54.3353401 177.268596,54.1044187 177.147005,53.9036145 C177.025413,53.7028102 176.858228,53.5421693 176.645443,53.4216867 C176.432659,53.3012042 176.159083,53.2409639 175.824707,53.2409639 C175.257281,53.2409639 174.793722,53.4543151 174.434014,53.8810241 C174.074307,54.3077331 173.894456,54.8775065 173.894456,55.5903614 L173.894456,59.3855422 L172.465766,59.3855422 L172.465766,53.7831325 C172.465766,53.5923685 172.4607,53.346387 172.450568,53.0451807 L172.423548,52.4896253 C172.417918,52.4048419 172.411726,52.3239629 172.404971,52.246988 L173.757667,52.246988 L173.791442,52.6385539 L173.816773,53.2585341 C173.817899,53.3171015 173.818462,53.3714857 173.818462,53.4216867 L173.864058,53.4216867 C173.955252,53.2309227 174.079374,53.0527117 174.23643,52.8870482 C174.393485,52.7213847 174.573336,52.5758038 174.775988,52.4503012 C174.97864,52.3247986 175.201554,52.226908 175.444736,52.1566265 C175.687919,52.086345 175.94123,52.0512048 176.204678,52.0512048 Z M307.365475,48 L307.365475,59.3855422 L305.936785,59.3855422 L305.936785,48 L307.365475,48 Z M146.729089,52.0512048 C147.195188,52.0512048 147.59542,52.1290153 147.929796,52.2846386 C148.264172,52.4402618 148.542814,52.6485931 148.765731,52.9096386 C148.988649,53.170684 149.153301,53.4769059 149.259693,53.8283133 C149.366085,54.1797206 149.419281,54.5562229 149.419281,54.9578313 L149.419281,59.3855422 L147.990591,59.3855422 L147.990591,55.4246988 C147.990591,55.1335327 147.967793,54.857431 147.922196,54.5963855 C147.8766,54.3353401 147.793007,54.1044187 147.671416,53.9036145 C147.549825,53.7028102 147.382639,53.5421693 147.169855,53.4216867 C146.95707,53.3012042 146.683494,53.2409639 146.349118,53.2409639 C145.781692,53.2409639 145.318133,53.4543151 144.958426,53.8810241 C144.598718,54.3077331 144.418867,54.8775065 144.418867,55.5903614 L144.418867,59.3855422 L142.990178,59.3855422 L142.990178,53.7831325 C142.990178,53.5923685 142.985111,53.346387 142.974979,53.0451807 L142.947959,52.4896253 C142.94233,52.4048419 142.936137,52.3239629 142.929382,52.246988 L144.282078,52.246988 L144.315853,52.6385539 L144.327674,52.8569277 C144.337807,53.0828325 144.342873,53.2710836 144.342873,53.4216867 L144.38847,53.4216867 C144.479663,53.2309227 144.603785,53.0527117 144.760841,52.8870482 C144.917896,52.7213847 145.097747,52.5758038 145.300399,52.4503012 C145.503051,52.3247986 145.725965,52.226908 145.969147,52.1566265 C146.21233,52.086345 146.465641,52.0512048 146.729089,52.0512048 Z M302.405592,55.9819277 L302.056019,55.9819277 C301.701377,55.9819277 301.334076,55.9969878 300.954104,56.0271084 C300.574131,56.0572291 300.229628,56.1174694 299.920584,56.2078313 C299.611539,56.2981932 299.355695,56.433734 299.153043,56.6144578 C298.950391,56.7951816 298.849066,57.0361431 298.849066,57.3373494 C298.849066,57.5481938 298.892129,57.7238949 298.978256,57.8644578 C299.064383,58.0050208 299.178374,58.1204815 299.32023,58.2108434 C299.462086,58.3012053 299.619139,58.3639556 299.791394,58.3990964 C299.963648,58.4342371 300.140966,58.4518072 300.323352,58.4518072 C300.992104,58.4518072 301.506326,58.253516 301.866033,57.8569277 C302.225741,57.4603394 302.405592,56.9608464 302.405592,56.3584337 L302.405592,55.9819277 Z M168.96497,55.9819277 L168.615397,55.9819277 C168.260756,55.9819277 167.893455,55.9969878 167.513482,56.0271084 C167.13351,56.0572291 166.789007,56.1174694 166.479962,56.2078313 C166.170918,56.2981932 165.915074,56.433734 165.712422,56.6144578 C165.50977,56.7951816 165.408445,57.0361431 165.408445,57.3373494 C165.408445,57.5481938 165.451508,57.7238949 165.537635,57.8644578 C165.623762,58.0050208 165.737752,58.1204815 165.879609,58.2108434 C166.021465,58.3012053 166.178518,58.3639556 166.350772,58.3990964 C166.523027,58.4342371 166.700344,58.4518072 166.882731,58.4518072 C167.551483,58.4518072 168.065705,58.253516 168.425412,57.8569277 C168.785119,57.4603394 168.96497,56.9608464 168.96497,56.3584337 L168.96497,55.9819277 Z M272.529767,55.9819277 L272.180194,55.9819277 C271.825553,55.9819277 271.458252,55.9969878 271.078279,56.0271084 C270.698307,56.0572291 270.353803,56.1174694 270.044759,56.2078313 C269.735715,56.2981932 269.47987,56.433734 269.277218,56.6144578 C269.074566,56.7951816 268.973242,57.0361431 268.973242,57.3373494 C268.973242,57.5481938 269.016305,57.7238949 269.102432,57.8644578 C269.188559,58.0050208 269.302549,58.1204815 269.444405,58.2108434 C269.586262,58.3012053 269.743315,58.3639556 269.915569,58.3990964 C270.087823,58.4342371 270.265141,58.4518072 270.447528,58.4518072 C271.11628,58.4518072 271.630501,58.253516 271.990209,57.8569277 C272.349916,57.4603394 272.529767,56.9608464 272.529767,56.3584337 L272.529767,55.9819277 Z M226.776236,55.9819277 L226.426663,55.9819277 C226.072022,55.9819277 225.704721,55.9969878 225.324748,56.0271084 C224.944776,56.0572291 224.600272,56.1174694 224.291228,56.2078313 C223.982184,56.2981932 223.726339,56.433734 223.523687,56.6144578 C223.321035,56.7951816 223.219711,57.0361431 223.219711,57.3373494 C223.219711,57.5481938 223.262774,57.7238949 223.348901,57.8644578 C223.435028,58.0050208 223.549018,58.1204815 223.690875,58.2108434 C223.832731,58.3012053 223.989784,58.3639556 224.162038,58.3990964 C224.334292,58.4342371 224.51161,58.4518072 224.693997,58.4518072 C225.362749,58.4518072 225.87697,58.253516 226.236678,57.8569277 C226.596385,57.4603394 226.776236,56.9608464 226.776236,56.3584337 L226.776236,55.9819277 Z M184.447507,53.2259036 C184.052336,53.2259036 183.707832,53.296184 183.413987,53.436747 C183.120142,53.5773099 182.871897,53.7680711 182.669245,54.0090361 C182.466593,54.2500012 182.314606,54.5261029 182.21328,54.8373494 C182.111954,55.1485959 182.061292,55.4698779 182.061292,55.8012048 C182.061292,56.1325318 182.111954,56.4538137 182.21328,56.7650602 C182.314606,57.0763068 182.466593,57.3524084 182.669245,57.5933735 C182.871897,57.8343386 183.120142,58.0276097 183.413987,58.1731928 C183.707832,58.3187758 184.052336,58.3915663 184.447507,58.3915663 C184.812281,58.3915663 185.144119,58.3212858 185.44303,58.1807229 C185.741942,58.0401599 185.997786,57.8519088 186.210571,57.6159639 C186.423356,57.3800189 186.588008,57.1064273 186.704533,56.7951807 C186.821058,56.4839342 186.879319,56.1576322 186.879319,55.8162651 C186.879319,55.4748979 186.821058,55.1485959 186.704533,54.8373494 C186.588008,54.5261029 186.423356,54.2500012 186.210571,54.0090361 C185.997786,53.7680711 185.741942,53.5773099 185.44303,53.436747 C185.144119,53.296184 184.812281,53.2259036 184.447507,53.2259036 Z M154.971918,53.2259036 C154.597012,53.2259036 154.262641,53.293674 153.968796,53.4292169 C153.67495,53.5647597 153.424172,53.7454808 153.216454,53.9713855 C153.008736,54.1972903 152.851683,54.4633519 152.74529,54.7695783 C152.638898,55.0758047 152.585703,55.3995967 152.585703,55.7409639 C152.585703,56.0722908 152.638898,56.3885527 152.74529,56.689759 C152.851683,56.9909639 153.008736,57.257027 153.216454,57.4879518 C153.424172,57.7188767 153.67495,57.9046178 153.968796,58.0451807 C154.262641,58.1857437 154.597012,58.2560241 154.971918,58.2560241 C155.336692,58.2560241 155.671063,58.1907637 155.975041,58.060241 C156.279019,57.9297182 156.537396,57.7515072 156.750181,57.5256024 C156.962966,57.2996977 157.127618,57.0336361 157.244143,56.7274096 C157.360668,56.4211832 157.418929,56.0923712 157.418929,55.7409639 C157.418929,55.3995967 157.360668,55.0783148 157.244143,54.7771084 C157.127618,54.4759021 156.960432,54.2098405 156.742582,53.9789157 C156.524731,53.7479908 156.266353,53.5647597 155.967441,53.4292169 C155.66853,53.293674 155.336692,53.2259036 154.971918,53.2259036 Z M98.9085175,53.2259036 C98.5336113,53.2259036 98.1992405,53.293674 97.9053951,53.4292169 C97.6115496,53.5647597 97.3607715,53.7454808 97.1530532,53.9713855 C96.9453349,54.1972903 96.7882819,54.4633519 96.6818896,54.7695783 C96.5754973,55.0758047 96.5223019,55.3995967 96.5223019,55.7409639 C96.5223019,56.0722908 96.5754973,56.3885527 96.6818896,56.689759 C96.7882819,56.9909639 96.9453349,57.257027 97.1530532,57.4879518 C97.3607715,57.7188767 97.6115496,57.9046178 97.9053951,58.0451807 C98.1992405,58.1857437 98.5336113,58.2560241 98.9085175,58.2560241 C99.2732912,58.2560241 99.607662,58.1907637 99.91164,58.060241 C100.215618,57.9297182 100.473996,57.7515072 100.68678,57.5256024 C100.899565,57.2996977 101.064217,57.0336361 101.180742,56.7274096 C101.297267,56.4211832 101.355528,56.0923712 101.355528,55.7409639 C101.355528,55.3995967 101.297267,55.0783148 101.180742,54.7771084 C101.064217,54.4759021 100.897032,54.2098405 100.679181,53.9789157 C100.46133,53.7479908 100.202952,53.5647597 99.9040406,53.4292169 C99.6051289,53.293674 99.2732912,53.2259036 98.9085175,53.2259036 Z M21.7849498,42.8175537 C22.3351095,43.3668638 22.6449224,44.1171654 22.6449224,44.9002261 C22.6449224,45.6120995 22.3888787,46.2968992 21.9289821,46.8282299 L21.7849498,46.9828986 L13.5572175,55.3289345 C12.8403887,56.1505408 11.7333625,56.500881 10.6831388,56.2384933 C9.63291522,55.9761055 8.81291815,55.144318 8.5542497,54.0789936 C8.31174803,53.0802519 8.60014323,52.0308683 9.30452651,51.3044552 L9.45091563,51.1635896 L17.6786479,42.8153614 C18.8247545,41.6945139 20.6400069,41.695483 21.7849498,42.8175537 Z M128.85527,53.1656627 C128.551292,53.1656627 128.26505,53.218373 127.996536,53.3237952 C127.728022,53.4292174 127.494976,53.5722883 127.29739,53.753012 C127.099805,53.9337358 126.937685,54.1470871 126.811028,54.3930723 C126.68437,54.6390575 126.61091,54.902609 126.590645,55.1837349 L130.876714,55.1837349 C130.866581,54.902609 130.818452,54.6390575 130.732325,54.3930723 C130.646198,54.1470871 130.519542,53.9337358 130.352354,53.753012 C130.185166,53.5722883 129.977451,53.4292174 129.729202,53.3237952 C129.480954,53.218373 129.189646,53.1656627 128.85527,53.1656627 Z M202.230133,53.1656627 C201.926155,53.1656627 201.639913,53.218373 201.371399,53.3237952 C201.102885,53.4292174 200.869839,53.5722883 200.672253,53.753012 C200.474668,53.9337358 200.312548,54.1470871 200.185891,54.3930723 C200.059233,54.6390575 199.985773,54.902609 199.965508,55.1837349 L204.251577,55.1837349 C204.241444,54.902609 204.193315,54.6390575 204.107188,54.3930723 C204.021061,54.1470871 203.894405,53.9337358 203.727217,53.753012 C203.560029,53.5722883 203.352314,53.4292174 203.104065,53.3237952 C202.855817,53.218373 202.564509,53.1656627 202.230133,53.1656627 Z M81.7237122,53.1656627 C81.4197342,53.1656627 81.1334925,53.218373 80.8649786,53.3237952 C80.5964647,53.4292174 80.3634183,53.5722883 80.1658326,53.753012 C79.9682469,53.9337358 79.8061277,54.1470871 79.6794702,54.3930723 C79.5528127,54.6390575 79.4793524,54.902609 79.4590872,55.1837349 L83.745156,55.1837349 C83.7350234,54.902609 83.6868943,54.6390575 83.6007672,54.3930723 C83.5146401,54.1470871 83.3879845,53.9337358 83.2207965,53.753012 C83.0536086,53.5722883 82.8458934,53.4292174 82.5976447,53.3237952 C82.349396,53.218373 82.0580881,53.1656627 81.7237122,53.1656627 Z M217.180711,53.1656627 C216.876733,53.1656627 216.590491,53.218373 216.321977,53.3237952 C216.053463,53.4292174 215.820417,53.5722883 215.622831,53.753012 C215.425246,53.9337358 215.263126,54.1470871 215.136469,54.3930723 C215.009811,54.6390575 214.936351,54.902609 214.916086,55.1837349 L219.202155,55.1837349 C219.192022,54.902609 219.143893,54.6390575 219.057766,54.3930723 C218.971639,54.1470871 218.844983,53.9337358 218.677795,53.753012 C218.510607,53.5722883 218.302892,53.4292174 218.054643,53.3237952 C217.806395,53.218373 217.515087,53.1656627 217.180711,53.1656627 Z M312.857317,53.1656627 C312.553339,53.1656627 312.267097,53.218373 311.998584,53.3237952 C311.73007,53.4292174 311.497023,53.5722883 311.299438,53.753012 C311.101852,53.9337358 310.939733,54.1470871 310.813075,54.3930723 C310.686418,54.6390575 310.612957,54.902609 310.592692,55.1837349 L314.878761,55.1837349 C314.868628,54.902609 314.820499,54.6390575 314.734372,54.3930723 C314.648245,54.1470871 314.521589,53.9337358 314.354401,53.753012 C314.187214,53.5722883 313.979498,53.4292174 313.73125,53.3237952 C313.483001,53.218373 313.191693,53.1656627 312.857317,53.1656627 Z M120.399657,53.1656627 C120.095679,53.1656627 119.809437,53.218373 119.540923,53.3237952 C119.272409,53.4292174 119.039363,53.5722883 118.841777,53.753012 C118.644191,53.9337358 118.482072,54.1470871 118.355415,54.3930723 C118.228757,54.6390575 118.155297,54.902609 118.135032,55.1837349 L122.421101,55.1837349 C122.410968,54.902609 122.362839,54.6390575 122.276712,54.3930723 C122.190585,54.1470871 122.063929,53.9337358 121.896741,53.753012 C121.729553,53.5722883 121.521838,53.4292174 121.273589,53.3237952 C121.02534,53.218373 120.734033,53.1656627 120.399657,53.1656627 Z M105.601067,48.753012 C105.864515,48.753012 106.089962,48.8408626 106.277415,49.0165663 C106.464868,49.19227 106.558593,49.4106413 106.558593,49.6716867 C106.558593,49.9327322 106.464868,50.1485935 106.277415,50.3192771 C106.089962,50.4899607 105.864515,50.5753012 105.601067,50.5753012 C105.337619,50.5753012 105.114706,50.4874507 104.932319,50.311747 C104.749932,50.1360433 104.65874,49.922692 104.65874,49.6716867 C104.65874,49.4106413 104.749932,49.19227 104.932319,49.0165663 C105.114706,48.8408626 105.337619,48.753012 105.601067,48.753012 Z M140.036539,48.753012 C140.299987,48.753012 140.525434,48.8408626 140.712887,49.0165663 C140.90034,49.19227 140.994065,49.4106413 140.994065,49.6716867 C140.994065,49.9327322 140.90034,50.1485935 140.712887,50.3192771 C140.525434,50.4899607 140.299987,50.5753012 140.036539,50.5753012 C139.773092,50.5753012 139.550178,50.4874507 139.367791,50.311747 C139.185404,50.1360433 139.094212,49.922692 139.094212,49.6716867 C139.094212,49.4106413 139.185404,49.19227 139.367791,49.0165663 C139.550178,48.8408626 139.773092,48.753012 140.036539,48.753012 Z M220.497942,18 C222.006866,18 223.4026,18.2490133 224.685185,18.7470472 C225.96777,19.2450812 227.076813,19.9845751 228.012346,20.9655512 C228.947878,21.9465272 229.679696,23.1689559 230.207819,24.632874 C230.735942,26.0967921 231,27.8097113 231,29.7716535 L231,30.496063 C231,30.737534 230.984911,30.9790014 230.954733,31.2204724 L214.432099,31.2204724 C214.492456,32.0052533 214.696157,32.7221096 215.04321,33.371063 C215.390262,34.0200164 215.850477,34.5784097 216.423868,35.0462598 C216.997259,35.51411 217.646087,35.8838569 218.37037,36.1555118 C219.094654,36.4271667 219.849104,36.5629921 220.633745,36.5629921 C221.991776,36.5629921 223.138541,36.3139789 224.074074,35.8159449 C225.009607,35.3179109 225.779147,34.631238 226.382716,33.7559055 L230.004115,36.6535433 C227.861454,39.5511956 224.753107,41 220.679012,41 C218.989018,41 217.434849,40.735895 216.016461,40.2076772 C214.598072,39.6794593 213.368318,38.9324195 212.32716,37.9665354 C211.286003,37.0006513 210.471196,35.8159519 209.882716,34.4124016 C209.294236,33.0088512 209,31.4166756 209,29.6358268 C209,27.8851619 209.294236,26.2929862 209.882716,24.859252 C210.471196,23.4255178 211.278459,22.203089 212.304527,21.1919291 C213.330595,20.1807692 214.54526,19.3960002 215.94856,18.8375984 C217.351859,18.2791967 218.868305,18 220.497942,18 Z M17.2555075,30.9080641 C17.8023219,31.8409523 17.8023219,33.002507 17.2555075,33.9353952 C16.742869,34.8099778 15.8266177,35.352243 14.8331312,35.3822079 L14.6335009,35.3813168 L3.03211741,35.3813168 C1.96296123,35.4230681 0.95692518,34.8682833 0.410110792,33.9353952 C-0.136703597,33.002507 -0.136703597,31.8409523 0.410110792,30.9080641 C0.922749281,30.0334814 1.83900056,29.4912162 2.83248702,29.4612514 L3.03211741,29.4621424 L14.6335009,29.4621424 C15.702657,29.4203912 16.7086931,29.9751759 17.2555075,30.9080641 Z M49.4787142,29.4621424 L61.1211607,29.4621424 C62.7209497,29.4730048 64.0094743,30.7967383 63.9999475,32.4195373 C63.9930486,33.9939773 62.7811309,35.2793008 61.2513377,35.3755603 L61.0800977,35.3813168 L49.4787142,35.3813168 C47.9110182,35.3200972 46.6712381,34.0131449 46.6712381,32.4217296 C46.6712381,30.8892556 47.8208833,29.6205635 49.3059216,29.4740222 L49.4787142,29.4621424 L61.1211607,29.4621424 Z M54.6548158,9.47506359 C55.2049755,10.0243738 55.5147885,10.7746753 55.5147885,11.5577361 C55.5147885,12.2696094 55.2587447,12.9544092 54.7988482,13.4857398 L54.6548158,13.6404085 L46.4270836,21.9864444 C45.7102547,22.8080507 44.6032285,23.1583909 43.5530049,22.8960032 C42.5027813,22.6336154 41.6827842,21.8018279 41.4241157,20.7365035 C41.1816141,19.7377619 41.4700093,18.6883782 42.1743925,17.9619651 L42.3207817,17.8210995 L50.5485139,9.4728713 C51.6946205,8.35202382 53.509873,8.35299295 54.6548158,9.47506359 Z M13.4102647,9.34930576 L13.5572175,9.4728713 L21.7849498,17.8189072 C22.804122,18.9870498 22.7509231,20.758053 21.6635275,21.8610839 C20.6214399,22.9181553 18.9745807,23.0117604 17.8256007,22.1078177 L17.6786479,21.9842521 L9.45091563,13.6382162 C8.43174337,12.4700736 8.48494226,10.6990705 9.57233795,9.59603951 C10.6144255,8.53896817 12.2612847,8.44536302 13.4102647,9.34930576 Z M32.0788003,0 C33.62288,0.0238960059 34.878621,1.24531803 34.9850602,2.78897988 L34.9921134,2.96177948 L34.9929918,14.9324759 C34.9634517,15.9402473 34.428873,16.869673 33.5666874,17.3896826 C32.6470228,17.9443594 31.5019329,17.9443594 30.5822682,17.3896826 C29.7200826,16.869673 29.1855039,15.9402473 29.1559639,14.9324759 L29.1568423,14.7299751 L29.1568423,2.96177948 C29.1639521,1.32817572 30.4683477,0.00600331259 32.0788003,0 Z" id="offscale" fill="#FFFFFF" fill-rule="nonzero"></path>
            </g>
        </g>
    </g>
</svg>